<?xml version="1.0" encoding="UTF-8" standalone="no"?>
<!DOCTYPE svg PUBLIC "-//W3C//DTD SVG 1.1//EN"
 "http://www.w3.org/Graphics/SVG/1.1/DTD/svg11.dtd">
<!-- Generated by graphviz version 2.40.1 (20161225.0304)
 -->
<!-- Title: %3 Pages: 1 -->
<svg width="1527pt" height="495pt"
 viewBox="0.00 0.00 1527.00 495.00" xmlns="http://www.w3.org/2000/svg" xmlns:xlink="http://www.w3.org/1999/xlink">
<g id="graph0" class="graph" transform="scale(1 1) rotate(0) translate(4 491)">
<title>%3</title>
<polygon fill="#ffffff" stroke="transparent" points="-4,4 -4,-491 1523,-491 1523,4 -4,4"/>
<text text-anchor="middle" x="759.5" y="-459" font-family="Times,serif" font-size="30.00" fill="#000000">Reachability Graph Schema</text>
<g id="clust1" class="cluster">
<title>clusterLegend</title>
<polygon fill="none" stroke="#000000" points="8,-315 8,-424 370,-424 370,-315 8,-315"/>
</g>
<g id="clust2" class="cluster">
<title>clusterWAVM</title>
<polygon fill="none" stroke="#d3d3d3" stroke-dasharray="5,2" points="390,-8 390,-438 1511,-438 1511,-8 390,-8"/>
<text text-anchor="middle" x="950.5" y="-418" font-family="Times,serif" font-size="20.00" fill="#000000">WAVM</text>
</g>
<!-- Process -->
<g id="node1" class="node">
<title>Process</title>
<polygon fill="none" stroke="#000000" points="36.5,-199 36.5,-291 144.5,-291 144.5,-199 36.5,-199"/>
<text text-anchor="middle" x="90.5" y="-275.8" font-family="Times,serif" font-size="14.00" fill="#000000">Wavix::Process</text>
<polyline fill="none" stroke="#000000" points="36.5,-268 144.5,-268 "/>
<text text-anchor="middle" x="90.5" y="-252.8" font-family="Times,serif" font-size="14.00" fill="#000000">moduleInstances</text>
<polyline fill="none" stroke="#000000" points="36.5,-245 144.5,-245 "/>
<text text-anchor="middle" x="90.5" y="-229.8" font-family="Times,serif" font-size="14.00" fill="#000000">compartment</text>
<polyline fill="none" stroke="#000000" points="36.5,-222 144.5,-222 "/>
<text text-anchor="middle" x="90.5" y="-206.8" font-family="Times,serif" font-size="14.00" fill="#000000">threads</text>
</g>
<!-- Thread -->
<g id="node2" class="node">
<title>Thread</title>
<polygon fill="none" stroke="#000000" points="232,-143 232,-189 331,-189 331,-143 232,-143"/>
<text text-anchor="middle" x="281.5" y="-173.8" font-family="Times,serif" font-size="14.00" fill="#000000">Wavix::Thread</text>
<polyline fill="none" stroke="#000000" points="232,-166 331,-166 "/>
<text text-anchor="middle" x="281.5" y="-150.8" font-family="Times,serif" font-size="14.00" fill="#000000">context</text>
</g>
<!-- Process&#45;&gt;Thread -->
<g id="edge4" class="edge">
<title>Process:e&#45;&gt;Thread:w</title>
<path fill="none" stroke="#000000" d="M144.5,-210C181.9978,-210 189.1785,-183.4917 221.2287,-178.7285"/>
<polygon fill="#000000" stroke="#000000" points="221.7727,-182.1988 231.5,-178 221.2774,-175.2163 221.7727,-182.1988"/>
</g>
<!-- Compartment -->
<g id="node14" class="node">
<title>Compartment</title>
<path fill="none" stroke="#000000" d="M581,-152.5C581,-152.5 724,-152.5 724,-152.5 730,-152.5 736,-158.5 736,-164.5 736,-164.5 736,-209.5 736,-209.5 736,-215.5 730,-221.5 724,-221.5 724,-221.5 581,-221.5 581,-221.5 575,-221.5 569,-215.5 569,-209.5 569,-209.5 569,-164.5 569,-164.5 569,-158.5 575,-152.5 581,-152.5"/>
<text text-anchor="middle" x="652.5" y="-206.3" font-family="Times,serif" font-size="14.00" fill="#000000">Runtime::Compartment</text>
<polyline fill="none" stroke="#000000" points="569,-198.5 736,-198.5 "/>
<text text-anchor="middle" x="652.5" y="-183.3" font-family="Times,serif" font-size="14.00" fill="#000000">idToModuleInstanceMap</text>
<polyline fill="none" stroke="#000000" points="569,-175.5 736,-175.5 "/>
<text text-anchor="middle" x="652.5" y="-160.3" font-family="Times,serif" font-size="14.00" fill="#000000">mutableGlobalInitialValues</text>
</g>
<!-- Process&#45;&gt;Compartment -->
<g id="edge3" class="edge">
<title>Process:e&#45;&gt;Compartment:w</title>
<path fill="none" stroke="#000000" d="M144.5,-233C317.373,-233 360.6766,-227.7741 533,-214 545.0355,-213.038 550.2123,-211.269 558.8401,-210.4446"/>
<polygon fill="#000000" stroke="#000000" points="559.1626,-213.934 569,-210 558.8565,-206.9406 559.1626,-213.934"/>
</g>
<!-- ModuleInstance -->
<g id="node15" class="node">
<title>ModuleInstance</title>
<path fill="none" stroke="#000000" d="M784,-188.5C784,-188.5 919,-188.5 919,-188.5 925,-188.5 931,-194.5 931,-200.5 931,-200.5 931,-245.5 931,-245.5 931,-251.5 925,-257.5 919,-257.5 919,-257.5 784,-257.5 784,-257.5 778,-257.5 772,-251.5 772,-245.5 772,-245.5 772,-200.5 772,-200.5 772,-194.5 778,-188.5 784,-188.5"/>
<text text-anchor="middle" x="851.5" y="-242.3" font-family="Times,serif" font-size="14.00" fill="#000000">Runtime::ModuleInstance</text>
<polyline fill="none" stroke="#000000" points="772,-234.5 931,-234.5 "/>
<text text-anchor="middle" x="851.5" y="-219.3" font-family="Times,serif" font-size="14.00" fill="#000000">...</text>
<polyline fill="none" stroke="#000000" points="772,-211.5 931,-211.5 "/>
<text text-anchor="middle" x="851.5" y="-196.3" font-family="Times,serif" font-size="14.00" fill="#000000">jitModule</text>
</g>
<!-- Process&#45;&gt;ModuleInstance -->
<g id="edge5" class="edge">
<title>Process:e&#45;&gt;ModuleInstance:w</title>
<path fill="none" stroke="#000000" d="M144.5,-257C420.0268,-257 491.337,-246.2669 761.878,-246.0049"/>
<polygon fill="#000000" stroke="#000000" points="762.0017,-249.5049 772,-246 761.9983,-242.5049 762.0017,-249.5049"/>
</g>
<!-- Context -->
<g id="node16" class="node">
<title>Context</title>
<path fill="none" stroke="#000000" d="M410,-58C410,-58 521,-58 521,-58 527,-58 533,-64 533,-70 533,-70 533,-138 533,-138 533,-144 527,-150 521,-150 521,-150 410,-150 410,-150 404,-150 398,-144 398,-138 398,-138 398,-70 398,-70 398,-64 404,-58 410,-58"/>
<text text-anchor="middle" x="465.5" y="-134.8" font-family="Times,serif" font-size="14.00" fill="#000000">Runtime::Context</text>
<polyline fill="none" stroke="#000000" points="398,-127 533,-127 "/>
<text text-anchor="middle" x="465.5" y="-111.8" font-family="Times,serif" font-size="14.00" fill="#000000">compartment</text>
<polyline fill="none" stroke="#000000" points="398,-104 533,-104 "/>
<text text-anchor="middle" x="465.5" y="-88.8" font-family="Times,serif" font-size="14.00" fill="#000000">mutableGlobalValues</text>
<polyline fill="none" stroke="#000000" points="398,-81 533,-81 "/>
<text text-anchor="middle" x="465.5" y="-65.8" font-family="Times,serif" font-size="14.00" fill="#000000">stack</text>
</g>
<!-- Thread&#45;&gt;Context -->
<g id="edge6" class="edge">
<title>Thread:e&#45;&gt;Context:w</title>
<path fill="none" stroke="#000000" d="M331.5,-154C357.8212,-154 365.5805,-142.5156 387.2612,-139.6445"/>
<polygon fill="#000000" stroke="#000000" points="387.7397,-143.1214 397.5,-139 387.2998,-136.1353 387.7397,-143.1214"/>
</g>
<!-- PerCompartmentObject -->
<g id="node3" class="node">
<title>PerCompartmentObject</title>
<polygon fill="none" stroke="#000000" points="16,-379 16,-415 165,-415 165,-379 16,-379"/>
<text text-anchor="middle" x="90.5" y="-393.3" font-family="Times,serif" font-size="14.00" fill="#000000">Per&#45;compartment object</text>
</g>
<!-- CrossCompartmentObject -->
<g id="node4" class="node">
<title>CrossCompartmentObject</title>
<polygon fill="#d3d3d3" stroke="#000000" points="201,-379 201,-415 362,-415 362,-379 201,-379"/>
<text text-anchor="middle" x="281.5" y="-393.3" font-family="Times,serif" font-size="14.00" fill="#000000">Cross&#45;compartment object</text>
</g>
<!-- PerCompartmentObject&#45;&gt;CrossCompartmentObject -->
<g id="edge1" class="edge">
<title>PerCompartmentObject&#45;&gt;CrossCompartmentObject</title>
</g>
<!-- anyrefSinkLegend -->
<g id="node5" class="node">
<title>anyrefSinkLegend</title>
<path fill="none" stroke="#000000" stroke-dasharray="5,2" d="M75.5,-324C75.5,-324 105.5,-324 105.5,-324 111.5,-324 117.5,-330 117.5,-336 117.5,-336 117.5,-348 117.5,-348 117.5,-354 111.5,-360 105.5,-360 105.5,-360 75.5,-360 75.5,-360 69.5,-360 63.5,-354 63.5,-348 63.5,-348 63.5,-336 63.5,-336 63.5,-330 69.5,-324 75.5,-324"/>
<text text-anchor="start" x="73" y="-339.3" font-family="Times,serif" font-style="italic" font-size="14.00" fill="#000000">anyref</text>
</g>
<!-- ReferenceableObject -->
<g id="node6" class="node">
<title>ReferenceableObject</title>
<path fill="none" stroke="#000000" d="M217,-324C217,-324 346,-324 346,-324 352,-324 358,-330 358,-336 358,-336 358,-348 358,-348 358,-354 352,-360 346,-360 346,-360 217,-360 217,-360 211,-360 205,-354 205,-348 205,-348 205,-336 205,-336 205,-330 211,-324 217,-324"/>
<text text-anchor="middle" x="281.5" y="-338.3" font-family="Times,serif" font-size="14.00" fill="#000000">Any referenceable object</text>
</g>
<!-- anyrefSinkLegend&#45;&gt;ReferenceableObject -->
<g id="edge2" class="edge">
<title>anyrefSinkLegend:e&#45;&gt;ReferenceableObject:w</title>
<path fill="none" stroke="#000000" d="M117.5,-340C156.1667,-340 165.8333,-340 204.5,-340"/>
<path fill="none" stroke="transparent" d="M117.5,-342C156.1667,-342 165.8333,-342 204.5,-342"/>
<path fill="none" stroke="#000000" d="M117.5,-344C156.1667,-344 165.8333,-344 204.5,-344"/>
</g>
<!-- anyrefSink1 -->
<g id="node7" class="node">
<title>anyrefSink1</title>
<path fill="none" stroke="#000000" stroke-dasharray="5,2" d="M637.5,-93C637.5,-93 667.5,-93 667.5,-93 673.5,-93 679.5,-99 679.5,-105 679.5,-105 679.5,-117 679.5,-117 679.5,-123 673.5,-129 667.5,-129 667.5,-129 637.5,-129 637.5,-129 631.5,-129 625.5,-123 625.5,-117 625.5,-117 625.5,-105 625.5,-105 625.5,-99 631.5,-93 637.5,-93"/>
<text text-anchor="start" x="635" y="-108.3" font-family="Times,serif" font-style="italic" font-size="14.00" fill="#000000">anyref</text>
</g>
<!-- anyrefSink2 -->
<g id="node8" class="node">
<title>anyrefSink2</title>
<path fill="none" stroke="#000000" stroke-dasharray="5,2" d="M1201.5,-127C1201.5,-127 1231.5,-127 1231.5,-127 1237.5,-127 1243.5,-133 1243.5,-139 1243.5,-139 1243.5,-151 1243.5,-151 1243.5,-157 1237.5,-163 1231.5,-163 1231.5,-163 1201.5,-163 1201.5,-163 1195.5,-163 1189.5,-157 1189.5,-151 1189.5,-151 1189.5,-139 1189.5,-139 1189.5,-133 1195.5,-127 1201.5,-127"/>
<text text-anchor="start" x="1199" y="-142.3" font-family="Times,serif" font-style="italic" font-size="14.00" fill="#000000">anyref</text>
</g>
<!-- anyrefSink3 -->
<g id="node9" class="node">
<title>anyrefSink3</title>
<path fill="none" stroke="#000000" stroke-dasharray="5,2" d="M1201.5,-182C1201.5,-182 1231.5,-182 1231.5,-182 1237.5,-182 1243.5,-188 1243.5,-194 1243.5,-194 1243.5,-206 1243.5,-206 1243.5,-212 1237.5,-218 1231.5,-218 1231.5,-218 1201.5,-218 1201.5,-218 1195.5,-218 1189.5,-212 1189.5,-206 1189.5,-206 1189.5,-194 1189.5,-194 1189.5,-188 1195.5,-182 1201.5,-182"/>
<text text-anchor="start" x="1199" y="-197.3" font-family="Times,serif" font-style="italic" font-size="14.00" fill="#000000">anyref</text>
</g>
<!-- anyrefSink4 -->
<g id="node10" class="node">
<title>anyrefSink4</title>
<path fill="none" stroke="#000000" stroke-dasharray="5,2" d="M1029,-363C1029,-363 1059,-363 1059,-363 1065,-363 1071,-369 1071,-375 1071,-375 1071,-387 1071,-387 1071,-393 1065,-399 1059,-399 1059,-399 1029,-399 1029,-399 1023,-399 1017,-393 1017,-387 1017,-387 1017,-375 1017,-375 1017,-369 1023,-363 1029,-363"/>
<text text-anchor="start" x="1026.5" y="-378.3" font-family="Times,serif" font-style="italic" font-size="14.00" fill="#000000">anyref</text>
</g>
<!-- anyrefSink5 -->
<g id="node11" class="node">
<title>anyrefSink5</title>
<path fill="none" stroke="#000000" stroke-dasharray="5,2" d="M637.5,-17C637.5,-17 667.5,-17 667.5,-17 673.5,-17 679.5,-23 679.5,-29 679.5,-29 679.5,-41 679.5,-41 679.5,-47 673.5,-53 667.5,-53 667.5,-53 637.5,-53 637.5,-53 631.5,-53 625.5,-47 625.5,-41 625.5,-41 625.5,-29 625.5,-29 625.5,-23 631.5,-17 637.5,-17"/>
<text text-anchor="start" x="635" y="-32.3" font-family="Times,serif" font-style="italic" font-size="14.00" fill="#000000">anyref</text>
</g>
<!-- anyrefSink6 -->
<g id="node12" class="node">
<title>anyrefSink6</title>
<path fill="none" stroke="#000000" stroke-dasharray="5,2" d="M836.5,-133C836.5,-133 866.5,-133 866.5,-133 872.5,-133 878.5,-139 878.5,-145 878.5,-145 878.5,-157 878.5,-157 878.5,-163 872.5,-169 866.5,-169 866.5,-169 836.5,-169 836.5,-169 830.5,-169 824.5,-163 824.5,-157 824.5,-157 824.5,-145 824.5,-145 824.5,-139 830.5,-133 836.5,-133"/>
<text text-anchor="start" x="834" y="-148.3" font-family="Times,serif" font-style="italic" font-size="14.00" fill="#000000">anyref</text>
</g>
<!-- Exception -->
<g id="node13" class="node">
<title>Exception</title>
<path fill="none" stroke="#000000" d="M800.5,-322.5C800.5,-322.5 902.5,-322.5 902.5,-322.5 908.5,-322.5 914.5,-328.5 914.5,-334.5 914.5,-334.5 914.5,-379.5 914.5,-379.5 914.5,-385.5 908.5,-391.5 902.5,-391.5 902.5,-391.5 800.5,-391.5 800.5,-391.5 794.5,-391.5 788.5,-385.5 788.5,-379.5 788.5,-379.5 788.5,-334.5 788.5,-334.5 788.5,-328.5 794.5,-322.5 800.5,-322.5"/>
<text text-anchor="middle" x="851.5" y="-376.3" font-family="Times,serif" font-size="14.00" fill="#000000">Runtime::Exception</text>
<polyline fill="none" stroke="#000000" points="788.5,-368.5 914.5,-368.5 "/>
<text text-anchor="middle" x="851.5" y="-353.3" font-family="Times,serif" font-size="14.00" fill="#000000">arguments</text>
<polyline fill="none" stroke="#000000" points="788.5,-345.5 914.5,-345.5 "/>
<text text-anchor="middle" x="851.5" y="-330.3" font-family="Times,serif" font-size="14.00" fill="#000000">type</text>
</g>
<!-- Exception&#45;&gt;anyrefSink4 -->
<g id="edge26" class="edge">
<title>Exception:e&#45;&gt;anyrefSink4:w</title>
<path fill="none" stroke="#000000" d="M914.5,-357C957.6324,-357 968.5868,-377.3965 1006.6913,-380.5834"/>
<polygon fill="#000000" stroke="#000000" points="1006.8668,-384.0933 1017,-381 1007.1495,-377.099 1006.8668,-384.0933"/>
</g>
<!-- ExceptionType -->
<g id="node20" class="node">
<title>ExceptionType</title>
<path fill="none" stroke="#000000" d="M979,-308C979,-308 1109,-308 1109,-308 1115,-308 1121,-314 1121,-320 1121,-320 1121,-332 1121,-332 1121,-338 1115,-344 1109,-344 1109,-344 979,-344 979,-344 973,-344 967,-338 967,-332 967,-332 967,-320 967,-320 967,-314 973,-308 979,-308"/>
<text text-anchor="middle" x="1044" y="-322.3" font-family="Times,serif" font-size="14.00" fill="#000000">Runtime::ExceptionType</text>
</g>
<!-- Exception&#45;&gt;ExceptionType -->
<g id="edge25" class="edge">
<title>Exception:e&#45;&gt;ExceptionType:w</title>
<path fill="none" stroke="#000000" d="M914.5,-334C934.2304,-334 941.1672,-328.4097 956.6997,-326.5753"/>
<polygon fill="#000000" stroke="#000000" points="957.2108,-330.0523 967,-326 956.8203,-323.0632 957.2108,-330.0523"/>
</g>
<!-- Compartment&#45;&gt;anyrefSink6 -->
<g id="edge11" class="edge">
<title>Compartment:e&#45;&gt;anyrefSink6:w</title>
<path fill="none" stroke="#000000" d="M736,-164C772.1836,-164 782.881,-153.231 814.4851,-151.2959"/>
<polygon fill="#000000" stroke="#000000" points="814.6078,-154.7939 824.5,-151 814.4009,-147.797 814.6078,-154.7939"/>
</g>
<!-- Compartment&#45;&gt;ModuleInstance -->
<g id="edge22" class="edge">
<title>Compartment:e&#45;&gt;ModuleInstance:w</title>
<path fill="none" stroke="#000000" d="M736,-187C762.3984,-187 747.3253,-230.573 762.0599,-242.8279"/>
<polygon fill="#000000" stroke="#000000" points="761.4092,-246.2941 772,-246 763.5374,-239.6254 761.4092,-246.2941"/>
</g>
<!-- Memory -->
<g id="node17" class="node">
<title>Memory</title>
<path fill="none" stroke="#000000" d="M996.5,-253C996.5,-253 1091.5,-253 1091.5,-253 1097.5,-253 1103.5,-259 1103.5,-265 1103.5,-265 1103.5,-277 1103.5,-277 1103.5,-283 1097.5,-289 1091.5,-289 1091.5,-289 996.5,-289 996.5,-289 990.5,-289 984.5,-283 984.5,-277 984.5,-277 984.5,-265 984.5,-265 984.5,-259 990.5,-253 996.5,-253"/>
<text text-anchor="middle" x="1044" y="-267.3" font-family="Times,serif" font-size="14.00" fill="#000000">Runtime::Memory</text>
</g>
<!-- ModuleInstance&#45;&gt;Memory -->
<g id="edge14" class="edge">
<title>ModuleInstance:e&#45;&gt;Memory:w</title>
<path fill="none" stroke="#000000" d="M931,-223C958.9317,-223 954.1566,-260.0789 974.1671,-269.0589"/>
<polygon fill="#000000" stroke="#000000" points="973.5115,-272.4969 984,-271 974.8672,-265.6295 973.5115,-272.4969"/>
</g>
<!-- Global -->
<g id="node18" class="node">
<title>Global</title>
<path fill="none" stroke="#000000" d="M1002,-123C1002,-123 1086,-123 1086,-123 1092,-123 1098,-129 1098,-135 1098,-135 1098,-157 1098,-157 1098,-163 1092,-169 1086,-169 1086,-169 1002,-169 1002,-169 996,-169 990,-163 990,-157 990,-157 990,-135 990,-135 990,-129 996,-123 1002,-123"/>
<text text-anchor="middle" x="1044" y="-153.8" font-family="Times,serif" font-size="14.00" fill="#000000">Runtime::Global</text>
<polyline fill="none" stroke="#000000" points="990,-146 1098,-146 "/>
<text text-anchor="middle" x="1044" y="-130.8" font-family="Times,serif" font-size="14.00" fill="#000000">immutableValue</text>
</g>
<!-- ModuleInstance&#45;&gt;Global -->
<g id="edge13" class="edge">
<title>ModuleInstance:e&#45;&gt;Global:w</title>
<path fill="none" stroke="#000000" d="M931,-223C966.205,-223 954.1482,-170.0754 980.1224,-159.7386"/>
<polygon fill="#000000" stroke="#000000" points="980.7581,-163.1806 990,-158 979.5446,-156.2866 980.7581,-163.1806"/>
</g>
<!-- Table -->
<g id="node19" class="node">
<title>Table</title>
<path fill="none" stroke="#000000" d="M1005,-188C1005,-188 1083,-188 1083,-188 1089,-188 1095,-194 1095,-200 1095,-200 1095,-222 1095,-222 1095,-228 1089,-234 1083,-234 1083,-234 1005,-234 1005,-234 999,-234 993,-228 993,-222 993,-222 993,-200 993,-200 993,-194 999,-188 1005,-188"/>
<text text-anchor="middle" x="1044" y="-218.8" font-family="Times,serif" font-size="14.00" fill="#000000">Runtime::Table</text>
<polyline fill="none" stroke="#000000" points="993,-211 1095,-211 "/>
<text text-anchor="middle" x="1044" y="-195.8" font-family="Times,serif" font-size="14.00" fill="#000000">elements</text>
</g>
<!-- ModuleInstance&#45;&gt;Table -->
<g id="edge15" class="edge">
<title>ModuleInstance:e&#45;&gt;Table:w</title>
<path fill="none" stroke="#000000" d="M931,-223C954.7882,-223 963.1745,-223 982.7512,-223"/>
<polygon fill="#000000" stroke="#000000" points="983,-226.5001 993,-223 983,-219.5001 983,-226.5001"/>
</g>
<!-- ModuleInstance&#45;&gt;ExceptionType -->
<g id="edge16" class="edge">
<title>ModuleInstance:e&#45;&gt;ExceptionType:w</title>
<path fill="none" stroke="#000000" d="M931,-223C975.5154,-223 927.7756,-309.7947 957.1553,-324.0344"/>
<polygon fill="#000000" stroke="#000000" points="956.5082,-327.4742 967,-326 957.8789,-320.6097 956.5082,-327.4742"/>
</g>
<!-- Function -->
<g id="node21" class="node">
<title>Function</title>
<path fill="#d3d3d3" stroke="#000000" d="M1169,-16C1169,-16 1264,-16 1264,-16 1270,-16 1276,-22 1276,-28 1276,-28 1276,-96 1276,-96 1276,-102 1270,-108 1264,-108 1264,-108 1169,-108 1169,-108 1163,-108 1157,-102 1157,-96 1157,-96 1157,-28 1157,-28 1157,-22 1163,-16 1169,-16"/>
<text text-anchor="middle" x="1216.5" y="-92.8" font-family="Times,serif" font-size="14.00" fill="#000000">Runtime::Function</text>
<polyline fill="none" stroke="#000000" points="1157,-85 1276,-85 "/>
<text text-anchor="middle" x="1216.5" y="-69.8" font-family="Times,serif" font-size="14.00" fill="#000000">mutableData</text>
<polyline fill="none" stroke="#000000" points="1157,-62 1276,-62 "/>
<text text-anchor="middle" x="1216.5" y="-46.8" font-family="Times,serif" font-size="14.00" fill="#000000">moduleInstanceId</text>
<polyline fill="none" stroke="#000000" points="1157,-39 1276,-39 "/>
<text text-anchor="middle" x="1216.5" y="-23.8" font-family="Times,serif" font-size="14.00" fill="#000000">code</text>
</g>
<!-- ModuleInstance&#45;&gt;Function -->
<g id="edge12" class="edge">
<title>ModuleInstance:e&#45;&gt;Function:w</title>
<path fill="none" stroke="#000000" d="M931,-223C982.0183,-223 927.0272,-145.7024 967,-114 997.8131,-89.5622 1098.4993,-95.8362 1146.7395,-96.8706"/>
<polygon fill="#000000" stroke="#000000" points="1146.9566,-100.3736 1157,-97 1147.045,-93.3741 1146.9566,-100.3736"/>
</g>
<!-- LLVMJITModule -->
<g id="node24" class="node">
<title>LLVMJITModule</title>
<polygon fill="#d3d3d3" stroke="#000000" points="982,-37 982,-83 1106,-83 1106,-37 982,-37"/>
<text text-anchor="middle" x="1044" y="-67.8" font-family="Times,serif" font-size="14.00" fill="#000000">LLVMJIT::Module</text>
<polyline fill="none" stroke="#000000" points="982,-60 1106,-60 "/>
<text text-anchor="middle" x="1044" y="-44.8" font-family="Times,serif" font-size="14.00" fill="#000000">functions</text>
</g>
<!-- ModuleInstance&#45;&gt;LLVMJITModule -->
<g id="edge17" class="edge">
<title>ModuleInstance:e&#45;&gt;LLVMJITModule:w</title>
<path fill="none" stroke="#000000" d="M931,-200C988.4109,-200 929.1779,-87.5 972.0083,-73.4375"/>
<polygon fill="#000000" stroke="#000000" points="972.6004,-76.8884 982,-72 971.6035,-69.9598 972.6004,-76.8884"/>
</g>
<!-- Context&#45;&gt;anyrefSink1 -->
<g id="edge8" class="edge">
<title>Context:e&#45;&gt;anyrefSink1:w</title>
<path fill="none" stroke="#000000" d="M533,-92C571.3627,-92 581.8124,-107.8747 615.3775,-110.6032"/>
<polygon fill="#000000" stroke="#000000" points="615.3705,-114.1055 625.5,-111 615.6448,-107.1109 615.3705,-114.1055"/>
</g>
<!-- Context&#45;&gt;anyrefSink5 -->
<g id="edge10" class="edge">
<title>Context:e&#45;&gt;anyrefSink5:w</title>
<path fill="none" stroke="#000000" d="M533,-69C573.2073,-69 580.6341,-40.3493 615.4634,-35.6488"/>
<polygon fill="#000000" stroke="#000000" points="615.7467,-39.1379 625.5,-35 615.295,-32.1525 615.7467,-39.1379"/>
</g>
<!-- Context&#45;&gt;Compartment -->
<g id="edge7" class="edge">
<title>Context:e&#45;&gt;Compartment:w</title>
<path fill="none" stroke="#000000" d="M533,-116C573.7175,-116 533.079,-193.8681 559.1778,-207.8601"/>
<polygon fill="#000000" stroke="#000000" points="558.4841,-211.291 569,-210 559.9743,-204.4514 558.4841,-211.291"/>
</g>
<!-- Context&#45;&gt;Function -->
<g id="edge9" class="edge">
<title>Context:e&#45;&gt;Function:w</title>
<path fill="none" stroke="#000000" d="M533,-69C623.2616,-69 646.1207,-71.299 736,-63 839.4658,-53.4464 863.4043,-35.024 967,-27 1047.7391,-20.7464 1070.6974,-26.487 1146.919,-26.9684"/>
<polygon fill="#000000" stroke="#000000" points="1146.9891,-30.4686 1157,-27 1147.011,-23.4686 1146.9891,-30.4686"/>
</g>
<!-- Global&#45;&gt;anyrefSink2 -->
<g id="edge18" class="edge">
<title>Global:e&#45;&gt;anyrefSink2:w</title>
<path fill="none" stroke="#000000" d="M1098,-134C1135.2795,-134 1146.5656,-143.1122 1179.1745,-144.7496"/>
<polygon fill="#000000" stroke="#000000" points="1179.418,-148.2564 1189.5,-145 1179.5878,-141.2585 1179.418,-148.2564"/>
</g>
<!-- Table&#45;&gt;anyrefSink3 -->
<g id="edge19" class="edge">
<title>Table:e&#45;&gt;anyrefSink3:w</title>
<path fill="none" stroke="#000000" d="M1095,-199C1133.3928,-199 1145.4611,-199.8355 1179.3293,-199.9791"/>
<polygon fill="#000000" stroke="#000000" points="1179.4928,-203.4794 1189.5,-200 1179.5072,-196.4794 1179.4928,-203.4794"/>
</g>
<!-- moduleInstanceIdSink -->
<g id="node22" class="node">
<title>moduleInstanceIdSink</title>
<text text-anchor="start" x="1359" y="-39.3" font-family="Times,serif" font-style="italic" font-size="14.00" fill="#000000">moduleInstanceId</text>
</g>
<!-- Function&#45;&gt;moduleInstanceIdSink -->
<g id="edge20" class="edge">
<title>Function:e&#45;&gt;moduleInstanceIdSink:w</title>
<path fill="none" stroke="#000000" d="M1276,-50C1305.6591,-50 1315.1671,-43.6543 1340.4182,-42.2662"/>
<polygon fill="#000000" stroke="#000000" points="1340.5959,-45.7628 1350.5,-42 1340.4111,-38.7652 1340.5959,-45.7628"/>
</g>
<!-- FunctionMutableData -->
<g id="node25" class="node">
<title>FunctionMutableData</title>
<polygon fill="#d3d3d3" stroke="#000000" points="1312,-79 1312,-115 1503,-115 1503,-79 1312,-79"/>
<text text-anchor="middle" x="1407.5" y="-93.3" font-family="Times,serif" font-size="14.00" fill="#000000">Runtime::FunctionMutableData</text>
</g>
<!-- Function&#45;&gt;FunctionMutableData -->
<g id="edge24" class="edge">
<title>Function:e&#45;&gt;FunctionMutableData:w</title>
<path fill="none" stroke="#000000" d="M1276,-74C1290.8333,-74 1292.8737,-88.0381 1302.1101,-94.1797"/>
<polygon fill="#000000" stroke="#000000" points="1301.4235,-97.6234 1312,-97 1303.3432,-90.8918 1301.4235,-97.6234"/>
</g>
<!-- moduleInstanceIdSource -->
<g id="node23" class="node">
<title>moduleInstanceIdSource</title>
<text text-anchor="start" x="417" y="-184.3" font-family="Times,serif" font-style="italic" font-size="14.00" fill="#000000">moduleInstanceId</text>
</g>
<!-- moduleInstanceIdSource&#45;&gt;Compartment -->
<g id="edge21" class="edge">
<title>moduleInstanceIdSource:e&#45;&gt;Compartment:w</title>
<path fill="none" stroke="#000000" d="M522.5,-187C539.2917,-187 545.8509,-187 558.8054,-187"/>
<polygon fill="#000000" stroke="#000000" points="559,-190.5001 569,-187 559,-183.5001 559,-190.5001"/>
</g>
<!-- LLVMJITModule&#45;&gt;Function -->
<g id="edge23" class="edge">
<title>LLVMJITModule:e&#45;&gt;Function:w</title>
<path fill="none" stroke="#000000" d="M1106,-48C1133.5041,-48 1127.8568,-85.5156 1147.0731,-94.8945"/>
<polygon fill="#000000" stroke="#000000" points="1146.4914,-98.3489 1157,-97 1147.9438,-91.5013 1146.4914,-98.3489"/>
</g>
</g>
</svg>
