<?xml version="1.0" encoding="UTF-8" standalone="no"?>
<!DOCTYPE svg PUBLIC "-//W3C//DTD SVG 1.1//EN"
 "http://www.w3.org/Graphics/SVG/1.1/DTD/svg11.dtd">
<!-- Generated by graphviz version 2.40.1 (20161225.0304)
 -->
<!-- Title: %3 Pages: 1 -->
<svg width="1143pt" height="596pt"
 viewBox="0.00 0.00 1143.00 595.50" xmlns="http://www.w3.org/2000/svg" xmlns:xlink="http://www.w3.org/1999/xlink">
<g id="graph0" class="graph" transform="scale(1 1) rotate(0) translate(4 591.5)">
<title>%3</title>
<polygon fill="#ffffff" stroke="transparent" points="-4,4 -4,-591.5 1139,-591.5 1139,4 -4,4"/>
<text text-anchor="middle" x="567.5" y="-559.5" font-family="Times,serif" font-size="30.00" fill="#000000">Reachability Graph Schema</text>
<g id="clust1" class="cluster">
<title>clusterLegend</title>
<polygon fill="none" stroke="#000000" points="8,-8 8,-117 373,-117 373,-8 8,-8"/>
</g>
<!-- PerCompartmentObject -->
<g id="node1" class="node">
<title>PerCompartmentObject</title>
<polygon fill="none" stroke="#000000" points="16,-72 16,-108 165,-108 165,-72 16,-72"/>
<text text-anchor="middle" x="90.5" y="-86.3" font-family="Times,serif" font-size="14.00" fill="#000000">Per&#45;compartment object</text>
</g>
<!-- CrossCompartmentObject -->
<g id="node2" class="node">
<title>CrossCompartmentObject</title>
<polygon fill="#d3d3d3" stroke="#000000" points="204,-72 204,-108 365,-108 365,-72 204,-72"/>
<text text-anchor="middle" x="284.5" y="-86.3" font-family="Times,serif" font-size="14.00" fill="#000000">Cross&#45;compartment object</text>
</g>
<!-- PerCompartmentObject&#45;&gt;CrossCompartmentObject -->
<g id="edge1" class="edge">
<title>PerCompartmentObject&#45;&gt;CrossCompartmentObject</title>
</g>
<!-- anyrefSinkLegend -->
<g id="node3" class="node">
<title>anyrefSinkLegend</title>
<path fill="none" stroke="#000000" stroke-dasharray="5,2" d="M75.5,-17C75.5,-17 105.5,-17 105.5,-17 111.5,-17 117.5,-23 117.5,-29 117.5,-29 117.5,-41 117.5,-41 117.5,-47 111.5,-53 105.5,-53 105.5,-53 75.5,-53 75.5,-53 69.5,-53 63.5,-47 63.5,-41 63.5,-41 63.5,-29 63.5,-29 63.5,-23 69.5,-17 75.5,-17"/>
<text text-anchor="start" x="73" y="-32.3" font-family="Times,serif" font-style="italic" font-size="14.00" fill="#000000">anyref</text>
</g>
<!-- ReferenceableObject -->
<g id="node4" class="node">
<title>ReferenceableObject</title>
<path fill="none" stroke="#000000" d="M220,-17C220,-17 349,-17 349,-17 355,-17 361,-23 361,-29 361,-29 361,-41 361,-41 361,-47 355,-53 349,-53 349,-53 220,-53 220,-53 214,-53 208,-47 208,-41 208,-41 208,-29 208,-29 208,-23 214,-17 220,-17"/>
<text text-anchor="middle" x="284.5" y="-31.3" font-family="Times,serif" font-size="14.00" fill="#000000">Any referenceable object</text>
</g>
<!-- anyrefSinkLegend&#45;&gt;ReferenceableObject -->
<g id="edge2" class="edge">
<title>anyrefSinkLegend:e&#45;&gt;ReferenceableObject:w</title>
<path fill="none" stroke="#000000" d="M117.5,-33C157.5,-33 167.5,-33 207.5,-33"/>
<path fill="none" stroke="transparent" d="M117.5,-35C157.5,-35 167.5,-35 207.5,-35"/>
<path fill="none" stroke="#000000" d="M117.5,-37C157.5,-37 167.5,-37 207.5,-37"/>
</g>
<!-- anyrefSink1 -->
<g id="node5" class="node">
<title>anyrefSink1</title>
<path fill="none" stroke="#000000" stroke-dasharray="5,2" d="M269.5,-221C269.5,-221 299.5,-221 299.5,-221 305.5,-221 311.5,-227 311.5,-233 311.5,-233 311.5,-245 311.5,-245 311.5,-251 305.5,-257 299.5,-257 299.5,-257 269.5,-257 269.5,-257 263.5,-257 257.5,-251 257.5,-245 257.5,-245 257.5,-233 257.5,-233 257.5,-227 263.5,-221 269.5,-221"/>
<text text-anchor="start" x="267" y="-236.3" font-family="Times,serif" font-style="italic" font-size="14.00" fill="#000000">anyref</text>
</g>
<!-- anyrefSink2 -->
<g id="node6" class="node">
<title>anyrefSink2</title>
<path fill="none" stroke="#000000" stroke-dasharray="5,2" d="M833.5,-493C833.5,-493 863.5,-493 863.5,-493 869.5,-493 875.5,-499 875.5,-505 875.5,-505 875.5,-517 875.5,-517 875.5,-523 869.5,-529 863.5,-529 863.5,-529 833.5,-529 833.5,-529 827.5,-529 821.5,-523 821.5,-517 821.5,-517 821.5,-505 821.5,-505 821.5,-499 827.5,-493 833.5,-493"/>
<text text-anchor="start" x="831" y="-508.3" font-family="Times,serif" font-style="italic" font-size="14.00" fill="#000000">anyref</text>
</g>
<!-- anyrefSink3 -->
<g id="node7" class="node">
<title>anyrefSink3</title>
<path fill="none" stroke="#000000" stroke-dasharray="5,2" d="M833.5,-428C833.5,-428 863.5,-428 863.5,-428 869.5,-428 875.5,-434 875.5,-440 875.5,-440 875.5,-452 875.5,-452 875.5,-458 869.5,-464 863.5,-464 863.5,-464 833.5,-464 833.5,-464 827.5,-464 821.5,-458 821.5,-452 821.5,-452 821.5,-440 821.5,-440 821.5,-434 827.5,-428 833.5,-428"/>
<text text-anchor="start" x="831" y="-443.3" font-family="Times,serif" font-style="italic" font-size="14.00" fill="#000000">anyref</text>
</g>
<!-- anyrefSink4 -->
<g id="node8" class="node">
<title>anyrefSink4</title>
<path fill="none" stroke="#000000" stroke-dasharray="5,2" d="M661,-166C661,-166 691,-166 691,-166 697,-166 703,-172 703,-178 703,-178 703,-190 703,-190 703,-196 697,-202 691,-202 691,-202 661,-202 661,-202 655,-202 649,-196 649,-190 649,-190 649,-178 649,-178 649,-172 655,-166 661,-166"/>
<text text-anchor="start" x="658.5" y="-181.3" font-family="Times,serif" font-style="italic" font-size="14.00" fill="#000000">anyref</text>
</g>
<!-- anyrefSink5 -->
<g id="node9" class="node">
<title>anyrefSink5</title>
<path fill="none" stroke="#000000" stroke-dasharray="5,2" d="M269.5,-166C269.5,-166 299.5,-166 299.5,-166 305.5,-166 311.5,-172 311.5,-178 311.5,-178 311.5,-190 311.5,-190 311.5,-196 305.5,-202 299.5,-202 299.5,-202 269.5,-202 269.5,-202 263.5,-202 257.5,-196 257.5,-190 257.5,-190 257.5,-178 257.5,-178 257.5,-172 263.5,-166 269.5,-166"/>
<text text-anchor="start" x="267" y="-181.3" font-family="Times,serif" font-style="italic" font-size="14.00" fill="#000000">anyref</text>
</g>
<!-- anyrefSink6 -->
<g id="node10" class="node">
<title>anyrefSink6</title>
<path fill="none" stroke="#000000" stroke-dasharray="5,2" d="M468.5,-204C468.5,-204 498.5,-204 498.5,-204 504.5,-204 510.5,-210 510.5,-216 510.5,-216 510.5,-228 510.5,-228 510.5,-234 504.5,-240 498.5,-240 498.5,-240 468.5,-240 468.5,-240 462.5,-240 456.5,-234 456.5,-228 456.5,-228 456.5,-216 456.5,-216 456.5,-210 462.5,-204 468.5,-204"/>
<text text-anchor="start" x="466" y="-219.3" font-family="Times,serif" font-style="italic" font-size="14.00" fill="#000000">anyref</text>
</g>
<!-- Exception -->
<g id="node11" class="node">
<title>Exception</title>
<path fill="none" stroke="#000000" d="M432.5,-259.5C432.5,-259.5 534.5,-259.5 534.5,-259.5 540.5,-259.5 546.5,-265.5 546.5,-271.5 546.5,-271.5 546.5,-316.5 546.5,-316.5 546.5,-322.5 540.5,-328.5 534.5,-328.5 534.5,-328.5 432.5,-328.5 432.5,-328.5 426.5,-328.5 420.5,-322.5 420.5,-316.5 420.5,-316.5 420.5,-271.5 420.5,-271.5 420.5,-265.5 426.5,-259.5 432.5,-259.5"/>
<text text-anchor="middle" x="483.5" y="-313.3" font-family="Times,serif" font-size="14.00" fill="#000000">Runtime::Exception</text>
<polyline fill="none" stroke="#000000" points="420.5,-305.5 546.5,-305.5 "/>
<text text-anchor="middle" x="483.5" y="-290.3" font-family="Times,serif" font-size="14.00" fill="#000000">arguments</text>
<polyline fill="none" stroke="#000000" points="420.5,-282.5 546.5,-282.5 "/>
<text text-anchor="middle" x="483.5" y="-267.3" font-family="Times,serif" font-size="14.00" fill="#000000">type</text>
</g>
<!-- Exception&#45;&gt;anyrefSink4 -->
<g id="edge22" class="edge">
<title>Exception:e&#45;&gt;anyrefSink4:w</title>
<path fill="none" stroke="#000000" d="M546.5,-294C590.149,-294 567.0913,-240.7837 599,-211 614.7218,-196.3252 621.6113,-187.0641 638.9058,-184.6381"/>
<polygon fill="#000000" stroke="#000000" points="639.2408,-188.124 649,-184 638.7991,-181.1379 639.2408,-188.124"/>
</g>
<!-- ExceptionType -->
<g id="node18" class="node">
<title>ExceptionType</title>
<path fill="none" stroke="#000000" d="M611,-286C611,-286 741,-286 741,-286 747,-286 753,-292 753,-298 753,-298 753,-310 753,-310 753,-316 747,-322 741,-322 741,-322 611,-322 611,-322 605,-322 599,-316 599,-310 599,-310 599,-298 599,-298 599,-292 605,-286 611,-286"/>
<text text-anchor="middle" x="676" y="-300.3" font-family="Times,serif" font-size="14.00" fill="#000000">Runtime::ExceptionType</text>
</g>
<!-- Exception&#45;&gt;ExceptionType -->
<g id="edge21" class="edge">
<title>Exception:e&#45;&gt;ExceptionType:w</title>
<path fill="none" stroke="#000000" d="M546.5,-271C570.1844,-271 571.58,-295.3713 588.9957,-302.2258"/>
<polygon fill="#000000" stroke="#000000" points="588.5424,-305.6999 599,-304 589.7648,-298.8075 588.5424,-305.6999"/>
</g>
<!-- Compartment -->
<g id="node12" class="node">
<title>Compartment</title>
<path fill="none" stroke="#000000" d="M213,-276.5C213,-276.5 356,-276.5 356,-276.5 362,-276.5 368,-282.5 368,-288.5 368,-288.5 368,-333.5 368,-333.5 368,-339.5 362,-345.5 356,-345.5 356,-345.5 213,-345.5 213,-345.5 207,-345.5 201,-339.5 201,-333.5 201,-333.5 201,-288.5 201,-288.5 201,-282.5 207,-276.5 213,-276.5"/>
<text text-anchor="middle" x="284.5" y="-330.3" font-family="Times,serif" font-size="14.00" fill="#000000">Runtime::Compartment</text>
<polyline fill="none" stroke="#000000" points="201,-322.5 368,-322.5 "/>
<text text-anchor="middle" x="284.5" y="-307.3" font-family="Times,serif" font-size="14.00" fill="#000000">idToModuleInstanceMap</text>
<polyline fill="none" stroke="#000000" points="201,-299.5 368,-299.5 "/>
<text text-anchor="middle" x="284.5" y="-284.3" font-family="Times,serif" font-size="14.00" fill="#000000">mutableGlobalInitialValues</text>
</g>
<!-- Compartment&#45;&gt;anyrefSink6 -->
<g id="edge7" class="edge">
<title>Compartment:e&#45;&gt;anyrefSink6:w</title>
<path fill="none" stroke="#000000" d="M368.5,-288C391.6122,-288 385.6664,-264.0731 404,-250 422.027,-236.1622 428.3128,-225.4294 446.5077,-222.6845"/>
<polygon fill="#000000" stroke="#000000" points="446.7626,-226.1753 456.5,-222 446.2842,-219.1917 446.7626,-226.1753"/>
</g>
<!-- ModuleInstance -->
<g id="node13" class="node">
<title>ModuleInstance</title>
<path fill="none" stroke="#000000" d="M416,-347.5C416,-347.5 551,-347.5 551,-347.5 557,-347.5 563,-353.5 563,-359.5 563,-359.5 563,-404.5 563,-404.5 563,-410.5 557,-416.5 551,-416.5 551,-416.5 416,-416.5 416,-416.5 410,-416.5 404,-410.5 404,-404.5 404,-404.5 404,-359.5 404,-359.5 404,-353.5 410,-347.5 416,-347.5"/>
<text text-anchor="middle" x="483.5" y="-401.3" font-family="Times,serif" font-size="14.00" fill="#000000">Runtime::ModuleInstance</text>
<polyline fill="none" stroke="#000000" points="404,-393.5 563,-393.5 "/>
<text text-anchor="middle" x="483.5" y="-378.3" font-family="Times,serif" font-size="14.00" fill="#000000">...</text>
<polyline fill="none" stroke="#000000" points="404,-370.5 563,-370.5 "/>
<text text-anchor="middle" x="483.5" y="-355.3" font-family="Times,serif" font-size="14.00" fill="#000000">jitModule</text>
</g>
<!-- Compartment&#45;&gt;ModuleInstance -->
<g id="edge18" class="edge">
<title>Compartment:e&#45;&gt;ModuleInstance:w</title>
<path fill="none" stroke="#000000" d="M368.5,-311C409.1456,-311 368.2173,-388.8681 394.2051,-402.8601"/>
<polygon fill="#000000" stroke="#000000" points="393.4834,-406.2849 404,-405 394.9775,-399.4462 393.4834,-406.2849"/>
</g>
<!-- Memory -->
<g id="node15" class="node">
<title>Memory</title>
<path fill="none" stroke="#000000" d="M628.5,-341C628.5,-341 723.5,-341 723.5,-341 729.5,-341 735.5,-347 735.5,-353 735.5,-353 735.5,-365 735.5,-365 735.5,-371 729.5,-377 723.5,-377 723.5,-377 628.5,-377 628.5,-377 622.5,-377 616.5,-371 616.5,-365 616.5,-365 616.5,-353 616.5,-353 616.5,-347 622.5,-341 628.5,-341"/>
<text text-anchor="middle" x="676" y="-355.3" font-family="Times,serif" font-size="14.00" fill="#000000">Runtime::Memory</text>
</g>
<!-- ModuleInstance&#45;&gt;Memory -->
<g id="edge10" class="edge">
<title>ModuleInstance:e&#45;&gt;Memory:w</title>
<path fill="none" stroke="#000000" d="M563,-382C584.8664,-382 589.3044,-365.3214 605.9967,-360.3699"/>
<polygon fill="#000000" stroke="#000000" points="606.5674,-363.8245 616,-359 605.6176,-356.8892 606.5674,-363.8245"/>
</g>
<!-- Global -->
<g id="node16" class="node">
<title>Global</title>
<path fill="none" stroke="#000000" d="M634,-500C634,-500 718,-500 718,-500 724,-500 730,-506 730,-512 730,-512 730,-534 730,-534 730,-540 724,-546 718,-546 718,-546 634,-546 634,-546 628,-546 622,-540 622,-534 622,-534 622,-512 622,-512 622,-506 628,-500 634,-500"/>
<text text-anchor="middle" x="676" y="-530.8" font-family="Times,serif" font-size="14.00" fill="#000000">Runtime::Global</text>
<polyline fill="none" stroke="#000000" points="622,-523 730,-523 "/>
<text text-anchor="middle" x="676" y="-507.8" font-family="Times,serif" font-size="14.00" fill="#000000">immutableValue</text>
</g>
<!-- ModuleInstance&#45;&gt;Global -->
<g id="edge9" class="edge">
<title>ModuleInstance:e&#45;&gt;Global:w</title>
<path fill="none" stroke="#000000" d="M563,-382C632.0374,-382 557.8259,-519.2888 611.7551,-533.7684"/>
<polygon fill="#000000" stroke="#000000" points="611.6537,-537.2814 622,-535 612.4892,-530.3314 611.6537,-537.2814"/>
</g>
<!-- Table -->
<g id="node17" class="node">
<title>Table</title>
<path fill="none" stroke="#000000" d="M637,-435C637,-435 715,-435 715,-435 721,-435 727,-441 727,-447 727,-447 727,-469 727,-469 727,-475 721,-481 715,-481 715,-481 637,-481 637,-481 631,-481 625,-475 625,-469 625,-469 625,-447 625,-447 625,-441 631,-435 637,-435"/>
<text text-anchor="middle" x="676" y="-465.8" font-family="Times,serif" font-size="14.00" fill="#000000">Runtime::Table</text>
<polyline fill="none" stroke="#000000" points="625,-458 727,-458 "/>
<text text-anchor="middle" x="676" y="-442.8" font-family="Times,serif" font-size="14.00" fill="#000000">elements</text>
</g>
<!-- ModuleInstance&#45;&gt;Table -->
<g id="edge11" class="edge">
<title>ModuleInstance:e&#45;&gt;Table:w</title>
<path fill="none" stroke="#000000" d="M563,-382C606.9187,-382 582.1347,-456.1547 614.7819,-468.3207"/>
<polygon fill="#000000" stroke="#000000" points="614.5647,-471.8318 625,-470 615.7,-464.9245 614.5647,-471.8318"/>
</g>
<!-- ModuleInstance&#45;&gt;ExceptionType -->
<g id="edge12" class="edge">
<title>ModuleInstance:e&#45;&gt;ExceptionType:w</title>
<path fill="none" stroke="#000000" d="M563,-382C597.0048,-382 568.7087,-320.1294 589.0852,-306.5952"/>
<polygon fill="#000000" stroke="#000000" points="590.2122,-309.9182 599,-304 588.4396,-303.1463 590.2122,-309.9182"/>
</g>
<!-- Function -->
<g id="node19" class="node">
<title>Function</title>
<path fill="#d3d3d3" stroke="#000000" d="M801,-151C801,-151 896,-151 896,-151 902,-151 908,-157 908,-163 908,-163 908,-231 908,-231 908,-237 902,-243 896,-243 896,-243 801,-243 801,-243 795,-243 789,-237 789,-231 789,-231 789,-163 789,-163 789,-157 795,-151 801,-151"/>
<text text-anchor="middle" x="848.5" y="-227.8" font-family="Times,serif" font-size="14.00" fill="#000000">Runtime::Function</text>
<polyline fill="none" stroke="#000000" points="789,-220 908,-220 "/>
<text text-anchor="middle" x="848.5" y="-204.8" font-family="Times,serif" font-size="14.00" fill="#000000">mutableData</text>
<polyline fill="none" stroke="#000000" points="789,-197 908,-197 "/>
<text text-anchor="middle" x="848.5" y="-181.8" font-family="Times,serif" font-size="14.00" fill="#000000">moduleInstanceId</text>
<polyline fill="none" stroke="#000000" points="789,-174 908,-174 "/>
<text text-anchor="middle" x="848.5" y="-158.8" font-family="Times,serif" font-size="14.00" fill="#000000">code</text>
</g>
<!-- ModuleInstance&#45;&gt;Function -->
<g id="edge8" class="edge">
<title>ModuleInstance:e&#45;&gt;Function:w</title>
<path fill="none" stroke="#000000" d="M563,-382C579.1536,-382 582.8849,-385.8862 599,-387 667.2816,-391.7191 699.4067,-429.5723 753,-387 805.3486,-345.4164 727.697,-243.9414 778.7899,-232.9669"/>
<polygon fill="#000000" stroke="#000000" points="779.3745,-236.4273 789,-232 778.7145,-229.4585 779.3745,-236.4273"/>
</g>
<!-- LLVMJITModule -->
<g id="node22" class="node">
<title>LLVMJITModule</title>
<polygon fill="#d3d3d3" stroke="#000000" points="614,-221 614,-267 738,-267 738,-221 614,-221"/>
<text text-anchor="middle" x="676" y="-251.8" font-family="Times,serif" font-size="14.00" fill="#000000">LLVMJIT::Module</text>
<polyline fill="none" stroke="#000000" points="614,-244 738,-244 "/>
<text text-anchor="middle" x="676" y="-228.8" font-family="Times,serif" font-size="14.00" fill="#000000">functions</text>
</g>
<!-- ModuleInstance&#45;&gt;LLVMJITModule -->
<g id="edge13" class="edge">
<title>ModuleInstance:e&#45;&gt;LLVMJITModule:w</title>
<path fill="none" stroke="#000000" d="M563,-359C610.0913,-359 570.2882,-271.4651 603.8023,-257.7878"/>
<polygon fill="#000000" stroke="#000000" points="604.7546,-261.1743 614,-256 603.5458,-254.2794 604.7546,-261.1743"/>
</g>
<!-- Context -->
<g id="node14" class="node">
<title>Context</title>
<path fill="none" stroke="#000000" d="M35,-177C35,-177 146,-177 146,-177 152,-177 158,-183 158,-189 158,-189 158,-257 158,-257 158,-263 152,-269 146,-269 146,-269 35,-269 35,-269 29,-269 23,-263 23,-257 23,-257 23,-189 23,-189 23,-183 29,-177 35,-177"/>
<text text-anchor="middle" x="90.5" y="-253.8" font-family="Times,serif" font-size="14.00" fill="#000000">Runtime::Context</text>
<polyline fill="none" stroke="#000000" points="23,-246 158,-246 "/>
<text text-anchor="middle" x="90.5" y="-230.8" font-family="Times,serif" font-size="14.00" fill="#000000">compartment</text>
<polyline fill="none" stroke="#000000" points="23,-223 158,-223 "/>
<text text-anchor="middle" x="90.5" y="-207.8" font-family="Times,serif" font-size="14.00" fill="#000000">mutableGlobalValues</text>
<polyline fill="none" stroke="#000000" points="23,-200 158,-200 "/>
<text text-anchor="middle" x="90.5" y="-184.8" font-family="Times,serif" font-size="14.00" fill="#000000">stack</text>
</g>
<!-- Context&#45;&gt;anyrefSink1 -->
<g id="edge4" class="edge">
<title>Context:e&#45;&gt;anyrefSink1:w</title>
<path fill="none" stroke="#000000" d="M158.5,-211C200.6536,-211 210.3616,-234.7959 247.4456,-238.514"/>
<polygon fill="#000000" stroke="#000000" points="247.3426,-242.013 257.5,-239 247.6807,-235.0212 247.3426,-242.013"/>
</g>
<!-- Context&#45;&gt;anyrefSink5 -->
<g id="edge6" class="edge">
<title>Context:e&#45;&gt;anyrefSink5:w</title>
<path fill="none" stroke="#000000" d="M158.5,-188C198.9236,-188 211.4484,-184.6293 247.2948,-184.0763"/>
<polygon fill="#000000" stroke="#000000" points="247.5265,-187.5748 257.5,-184 247.4741,-180.575 247.5265,-187.5748"/>
</g>
<!-- Context&#45;&gt;Compartment -->
<g id="edge3" class="edge">
<title>Context:e&#45;&gt;Compartment:w</title>
<path fill="none" stroke="#000000" d="M158.5,-235C202.4552,-235 161.1752,-318.424 191.1465,-332.1107"/>
<polygon fill="#000000" stroke="#000000" points="190.5198,-335.5543 201,-334 191.838,-328.6795 190.5198,-335.5543"/>
</g>
<!-- Context&#45;&gt;Function -->
<g id="edge5" class="edge">
<title>Context:e&#45;&gt;Function:w</title>
<path fill="none" stroke="#000000" d="M158.5,-188C182.1445,-188 178.5759,-163.4981 201,-156 317.3353,-117.1 630.7513,-145.8824 753,-156 765.1241,-157.0034 770.1879,-159.8767 778.8052,-161.2506"/>
<polygon fill="#000000" stroke="#000000" points="778.7703,-164.7574 789,-162 779.2835,-157.7763 778.7703,-164.7574"/>
</g>
<!-- Global&#45;&gt;anyrefSink2 -->
<g id="edge14" class="edge">
<title>Global:e&#45;&gt;anyrefSink2:w</title>
<path fill="none" stroke="#000000" d="M730,-511C767.013,-511 778.7603,-511 811.2334,-511"/>
<polygon fill="#000000" stroke="#000000" points="811.5,-514.5001 821.5,-511 811.5,-507.5001 811.5,-514.5001"/>
</g>
<!-- Table&#45;&gt;anyrefSink3 -->
<g id="edge15" class="edge">
<title>Table:e&#45;&gt;anyrefSink3:w</title>
<path fill="none" stroke="#000000" d="M727,-446C765.3906,-446 777.4627,-446 811.3298,-446"/>
<polygon fill="#000000" stroke="#000000" points="811.5,-449.5001 821.5,-446 811.5,-442.5001 811.5,-449.5001"/>
</g>
<!-- moduleInstanceIdSink -->
<g id="node20" class="node">
<title>moduleInstanceIdSink</title>
<text text-anchor="start" x="991" y="-167.3" font-family="Times,serif" font-style="italic" font-size="14.00" fill="#000000">moduleInstanceId</text>
</g>
<!-- Function&#45;&gt;moduleInstanceIdSink -->
<g id="edge16" class="edge">
<title>Function:e&#45;&gt;moduleInstanceIdSink:w</title>
<path fill="none" stroke="#000000" d="M908,-185C938.0814,-185 946.8834,-173.1018 972.31,-170.4991"/>
<polygon fill="#000000" stroke="#000000" points="972.6832,-173.9851 982.5,-170 972.3407,-166.9935 972.6832,-173.9851"/>
</g>
<!-- FunctionMutableData -->
<g id="node23" class="node">
<title>FunctionMutableData</title>
<polygon fill="#d3d3d3" stroke="#000000" points="944,-207 944,-243 1135,-243 1135,-207 944,-207"/>
<text text-anchor="middle" x="1039.5" y="-221.3" font-family="Times,serif" font-size="14.00" fill="#000000">Runtime::FunctionMutableData</text>
</g>
<!-- Function&#45;&gt;FunctionMutableData -->
<g id="edge20" class="edge">
<title>Function:e&#45;&gt;FunctionMutableData:w</title>
<path fill="none" stroke="#000000" d="M908,-209C921.4054,-209 925.1228,-218.3789 933.987,-222.7753"/>
<polygon fill="#000000" stroke="#000000" points="933.4789,-226.2477 944,-225 934.9972,-219.4143 933.4789,-226.2477"/>
</g>
<!-- moduleInstanceIdSource -->
<g id="node21" class="node">
<title>moduleInstanceIdSource</title>
<text text-anchor="start" x="42" y="-308.3" font-family="Times,serif" font-style="italic" font-size="14.00" fill="#000000">moduleInstanceId</text>
</g>
<!-- moduleInstanceIdSource&#45;&gt;Compartment -->
<g id="edge17" class="edge">
<title>moduleInstanceIdSource:e&#45;&gt;Compartment:w</title>
<path fill="none" stroke="#000000" d="M147.5,-311C167.3767,-311 174.7917,-311 190.5794,-311"/>
<polygon fill="#000000" stroke="#000000" points="191,-314.5001 201,-311 191,-307.5001 191,-314.5001"/>
</g>
<!-- LLVMJITModule&#45;&gt;Function -->
<g id="edge19" class="edge">
<title>LLVMJITModule:e&#45;&gt;Function:w</title>
<path fill="none" stroke="#000000" d="M738,-232C756.7708,-232 763.8832,-232 778.6465,-232"/>
<polygon fill="#000000" stroke="#000000" points="779,-235.5001 789,-232 779,-228.5001 779,-235.5001"/>
</g>
</g>
</svg>
